# Apple ModelIO OBJ File: ModifySphere
mtllib ModifySphere.mtl
g 
v 0.818136 1.22404 1.125
v 1.13064 1.03091 0.981763
v 0.953582 1.25006 0.75
v 0.9375 0.911543 1.35676
v 1.15666 0.718408 1.1443
v 0.625 1.04699 1.38799
v 0.625 1.34341 0.75
v 0.431864 1.22404 1.125
v 0.296418 1.25006 0.75
v 0.818136 1.22404 0.375
v 0.431864 1.22404 0.375
v 0.625 1.04699 0.112012
v 1.13064 1.03091 0.518237
v 0.9375 0.911543 0.306333
v 1.25 0.718408 0.75
v 1.57613 0.718408 0.518798
v 0.119364 1.03091 0.981763
v 0.3125 0.911543 1.35676
v 0.0933433 0.718408 1.1443
v 0.625 0.718408 1.5
v 0.9375 0.0840857 1.35676
v 0.625 0.0950866 1.38799
v 1.13064 0.0384631 0.981763
v 1.13064 0.405908 0.518237
v 0.953582 0.186751 0.75
v 0.3125 0.911543 0.143237
v 0.119364 1.03091 0.518237
v 0.0933433 0.718408 0.355702
v 0.431864 0.0886647 1.125
v 0.119364 0.0924491 0.981763
v 0.296418 0.186751 0.75
v 0.3125 0.525272 1.35676
v 0.625 0.0934076 0.75
v 0.818136 0.212772 1.125
v 0.431864 0.212772 0.375
v 0.818136 0.212772 0.375
v 0.625 0.0913508 -0.423366
v 0.119364 0.0924491 0.518237
v 0.3125 0.226797 -0.392141
v 0 0.718408 0.75
v 0.9375 0.226797 -0.229045
v 0.625 0.711793 -0.535378
v 0.964895 0.887401 0.332891
v 0.992289 0.863259 0.359449
v 1.01968 0.839117 0.386007
v 1.04708 0.814975 0.412566
v 1.07447 0.790833 0.439124
v 1.10187 0.766692 0.465682
v 1.54873 0.74255 0.49224
v 0.964895 0.288248 -0.135564
v 0.992289 0.3497 -0.042084
v 1.01968 0.411151 0.0513963
v 1.04708 0.472602 0.144877
v 1.07447 0.534054 0.238357
v 1.10187 0.595505 0.331837
v 1.54873 0.656956 0.425317
v 0.78125 0.811668 -0.19607
v 0.9375 0.654763 0.105567
v 0.833333 0.616711 -0.261427
v 0.9375 0.69756 0.139028
v 0.9375 0.740357 0.172489
v 0.9375 0.783153 0.20595
v 0.9375 0.82595 0.239411
v 0.9375 0.868747 0.272872
v 0.9375 0.611967 0.0721055
v 0.9375 0.56917 0.0386444
v 0.78125 0.469295 -0.463759
v 0.9375 0.397984 -0.0952001
v 0.9375 0.355187 -0.128661
v 0.9375 0.31239 -0.162122
v 0.9375 0.269594 -0.195584
v 0.9375 0.44078 -0.061739
v 0.9375 0.483577 -0.0282779
v 0.9375 0.526374 0.00518322
v 1.41176 0.60648 0.158683
vn 0.32143 0.838745 0.439533
vn 0.819509 0.507458 0.266255
vn 0.525739 0.850646 0
vn 0.552411 0.339391 0.761351
vn 0.891738 0.0609826 0.448424
vn -6.39274e-09 0.587522 0.809208
vn 0 1 0
vn -0.32143 0.838745 0.439533
vn -0.525739 0.850646 0
vn 0.373285 0.781327 -0.500186
vn -0.32143 0.838745 -0.439533
vn 0.0737794 0.782535 -0.61822
vn 0.786623 0.584923 -0.197708
vn 0.722705 0.39107 -0.569879
vn 0.949884 0.04681 0.309079
vn 0.901202 0.134235 0.412086
vn -0.819509 0.507458 0.266255
vn -0.552411 0.339391 0.761351
vn -0.874634 0.049977 0.482201
vn -0.0414916 0.0509979 0.997836
vn 0.417575 -0.581056 0.698574
vn -0.218243 -0.807646 0.547793
vn 0.540607 -0.832975 -0.117886
vn 0.69906 -0.705651 -0.115637
vn 0.170117 -0.958821 -0.227424
vn -0.646492 0.544731 -0.534149
vn -0.819509 0.507458 -0.266255
vn -0.927046 0.146329 -0.345217
vn -0.125815 -0.977988 0.16646
vn -0.623169 -0.707437 0.333456
vn 0.0939444 -0.98917 -0.112771
vn -0.572752 -0.235609 0.785139
vn 0.0528225 -0.995165 -0.0828054
vn -0.050428 -0.991394 -0.120812
vn 0.00994263 -0.99887 -0.0464805
vn 0.301941 -0.950042 -0.0790668
vn 0.0520257 -0.899257 -0.434316
vn -0.480798 -0.868217 -0.122608
vn -0.735819 -0.364458 -0.570737
vn -0.998012 0.0630216 0
vn 0.876586 -0.331097 -0.349245
vn -2.45433e-08 0.476727 -0.879051
vn 0.724564 0.571766 -0.384825
vn 0.783363 0.527844 -0.328213
vn 0.733025 0.662584 -0.153806
vn 0.461248 0.634801 -0.619902
vn 0.47329 0.712902 -0.517462
vn 0.864333 -0.502882 -0.00614639
vn 0.79941 -0.582162 0.148429
vn 0.634255 -0.718183 0.286242
vn 0.527545 -0.841922 -0.113422
vn 0.67072 -0.688851 -0.27499
vn 0.7589 0.504594 -0.41165
vn 0.604578 0.503525 -0.617209
vn 0.889022 0.284938 -0.358399
vn 0.44837 0.55056 -0.704165
vn 0.598537 0.493429 -0.631095
vn 0.604854 0.546183 -0.579514
vn 0.46472 0.545392 -0.697555
vn 0.760202 0.400171 -0.511816
vn 0.774754 0.135034 -0.617675
vn 0.612023 0.473539 -0.633394
vn 0.756645 0.282758 -0.589522
vn 0.623703 0.481459 -0.615785
vn 0.597132 0.542243 -0.591106
vt -0.818136 1.125
vt -1.13064 0.981763
vt -0.953582 0.75
vt -1.20072 0.880117
vt -0.957777 0.697626
vt -0.800987 1.00683
vt 1.014 1.12238
vt 1.17458 0.808118
vt 1.29422 0.930968
vt 0.873425 0.942791
vt -0.625 0.75
vt -0.431864 1.125
vt -0.625 1.38799
vt -0.296418 0.75
vt -0.818136 0.375
vt -0.431864 0.375
vt -0.625 0.112012
vt -1.13064 0.518237
vt -0.963753 0.652424
vt -0.59589 0.771021
vt -0.895472 0.986162
vt -1.23751 0.796639
vt -0.34271 1.00294
vt -0.598416 1.2139
vt -0.553937 0.699479
vt -0.276414 0.715582
vt -0.119364 0.981763
vt 0.560596 0.80711
vt 0.634536 1.12176
vt 0.30077 0.929337
vt 1.14721 0.6265
vt 1.36869 0.830235
vt 0.985911 0.940279
vt 0.894362 0.613272
vt 1.17458 -0.0193083
vt 1.35016 0.617144
vt 0.873425 -0.00907648
vt -0.800987 0.0159422
vt -0.34271 0.378918
vt -0.598416 0.152255
vt -0.34204 0.726614
vt -0.562186 1.06884
vt -0.119364 0.518237
vt -0.364957 1.0131
vt 0.359309 0.628213
vt 0.522794 0.941286
vt 0.156239 0.832871
vt 0.428948 1.12431
vt 0.118595 0.978077
vt 0.304619 0.739896
vt 1.36869 0.444481
vt 0.98591 0.0030756
vt 0.634536 -0.0135807
vt 0.560596 0.420854
vt 0.30077 -0.00908649
vt 0.621504 0.752828
vt 0.826167 1.11593
vt 0.621682 1.38736
vt 0.958107 0.746934
vt 0.442056 0.365656
vt 0.826167 0.369793
vt 0.621287 -0.414282
vt 0.118595 0.516941
vt -0.0714094 -0.0893176
vt -0.325259 -0.290319
vt -0.562186 0.152704
vt -0.364957 0.162922
vt -0.378666 0.150203
vt 0.522794 0.00408226
vt 0.761791 0.106899
vt 0.749338 0.622536
vt 0.305589 0.615429
vt 1.11851 0.994352
vt 1.014 0.111145
vt 1.29422 -0.0614398
vt -1.20072 0.0539564
vt -0.693122 -0.163508
vt -0.895472 0.0700253
vt 1.15732 0.496163
vt -1.23751 0.230435
vt -0.260345 0.676181
vt -0.268638 0.230832
vt 0.761791 1.16879
vt -0.184333 0.848931
vt -0.162186 0.871296
vt -0.20648 0.826565
vt -0.228626 0.8042
vt -0.250773 0.781835
vt -0.272919 0.759469
vt -0.295066 0.737104
vt -0.254268 0.737947
vt 0.36713 0.183127
vt 0.278819 0.246783
vt 0.190508 0.310439
vt 0.102196 0.374095
vt 0.0138853 0.43775
vt -0.0744258 0.501406
vt -0.162737 0.565062
vt -0.188103 0.651926
vt -0.574973 0.411834
vt -0.862266 0.346449
vt -0.586875 0.200191
vt -0.879181 0.397445
vt -0.896095 0.448441
vt -0.91301 0.499436
vt -0.929924 0.550432
vt -0.946838 0.601428
vt -0.845352 0.295454
vt -0.828437 0.244458
vt -0.439658 0.00386822
vt -0.76078 0.0404751
vt -0.743865 -0.0105206
vt -0.726951 -0.0615163
vt -0.710037 -0.112512
vt -0.777694 0.0914708
vt -0.794609 0.142466
vt -0.811523 0.193462
vt -1.29832 0.220601
vt -0.764013 -0.0795478
vt -0.905794 0.0883723
vt -0.834903 0.00441235
vt -0.976685 0.172332
vt -1.04757 0.256292
vt -1.55129 0.334427
vt -1.11847 0.340252
vt -1.62218 0.418387
vt -1.58512 0.436418
vt -1.14906 0.562267
vt -1.18612 0.544235
vt -1.07494 0.598329
vt -1.112 0.580298
vt -1.00082 0.634392
vt -1.03788 0.616361
usemtl material_1
f 1/1/1 2/2/2 3/3/3
f 4/4/4 5/5/5 2/6/2
f 1/7/1 4/8/4 2/9/2
f 6/10/6 4/8/4 1/7/1
f 7/11/7 1/1/1 3/3/3
f 8/12/8 6/13/6 1/1/1
f 7/11/7 8/12/8 1/1/1
f 9/14/9 8/12/8 7/11/7
f 10/15/10 7/11/7 3/3/3
f 11/16/11 9/14/9 7/11/7
f 10/15/10 11/16/11 7/11/7
f 12/17/12 11/16/11 10/15/10
f 13/18/13 10/15/10 3/3/3
f 14/19/14 12/20/12 10/21/10
f 13/22/13 14/19/14 10/21/10
f 2/6/2 13/23/13 3/24/3
f 15/25/15 16/26/16 13/23/13
f 2/6/2 15/25/15 13/23/13
f 5/5/5 15/25/15 2/6/2
f 17/27/17 8/12/8 9/14/9
f 18/28/18 6/10/6 8/29/8
f 17/30/17 18/28/18 8/29/8
f 19/31/19 18/32/18 17/33/17
f 20/34/20 4/8/4 6/10/6
f 21/35/21 5/36/5 4/8/4
f 20/34/20 21/35/21 4/8/4
f 22/37/22 21/35/21 20/34/20
f 23/38/23 15/25/15 5/5/5
f 24/39/24 16/26/16 15/25/15
f 23/38/23 24/39/24 15/25/15
f 25/40/25 24/39/24 23/38/23
f 26/41/26 11/42/11 12/20/12
f 27/43/27 9/14/9 11/16/11
f 26/41/26 27/44/27 11/42/11
f 28/45/28 27/46/27 26/47/26
f 29/48/29 30/49/30 31/50/31
f 32/51/32 19/31/19 30/52/30
f 29/53/29 32/54/32 30/55/30
f 22/37/22 32/54/32 29/53/29
f 33/56/33 29/48/29 31/50/31
f 34/57/34 22/58/22 29/48/29
f 33/56/33 34/57/34 29/48/29
f 25/59/25 34/57/34 33/56/33
f 35/60/35 33/56/33 31/50/31
f 36/61/36 25/59/25 33/56/33
f 35/60/35 36/61/36 33/56/33
f 37/62/37 36/61/36 35/60/35
f 38/63/38 35/60/35 31/50/31
f 39/64/39 37/65/37 35/66/35
f 38/67/38 39/64/39 35/66/35
f 28/45/28 39/68/39 38/69/38
f 30/52/30 38/69/38 31/70/31
f 40/71/40 28/45/28 38/69/38
f 30/52/30 40/71/40 38/69/38
f 19/31/19 40/71/40 30/52/30
f 20/34/20 32/54/32 22/37/22
f 18/28/18 19/72/19 32/54/32
f 20/34/20 18/28/18 32/54/32
f 6/10/6 18/28/18 20/34/20
f 23/73/23 34/57/34 25/59/25
f 21/35/21 22/37/22 34/74/34
f 23/75/23 21/35/21 34/74/34
f 5/5/5 21/76/21 23/38/23
f 41/77/41 36/78/36 37/65/37
f 24/79/24 25/59/25 36/61/36
f 41/77/41 24/80/24 36/78/36
f 26/41/26 39/64/39 28/81/28
f 42/82/42 37/65/37 39/64/39
f 26/41/26 42/82/42 39/64/39
f 12/20/12 42/82/42 26/41/26
f 17/33/17 40/71/40 19/31/19
f 27/46/27 28/45/28 40/71/40
f 17/33/17 27/46/27 40/71/40
f 9/83/9 27/46/27 17/33/17
f 13/23/13 43/84/43 14/85/14
f 13/23/13 44/86/44 43/84/43
f 13/23/13 45/87/45 44/86/44
f 13/23/13 46/88/44 45/87/45
f 13/23/13 47/89/45 46/88/44
f 13/23/13 48/90/46 47/89/45
f 13/23/13 49/91/47 48/90/46
f 13/23/13 16/26/16 49/91/47
f 41/92/41 50/93/48 24/39/24
f 50/93/48 51/94/49 24/39/24
f 24/39/24 51/94/49 52/95/50
f 24/39/24 52/95/50 53/96/49
f 24/39/24 53/96/49 54/97/50
f 24/39/24 54/97/50 55/98/51
f 24/39/24 55/98/51 56/99/52
f 24/39/24 56/99/52 16/26/16
f 57/100/53 58/101/54 59/102/55
f 60/103/56 58/101/54 57/100/53
f 61/104/57 60/103/56 57/100/53
f 61/104/57 57/100/53 62/105/56
f 63/106/57 62/105/56 57/100/53
f 64/107/58 63/106/57 57/100/53
f 64/107/58 57/100/53 14/19/14
f 65/108/59 59/102/55 58/101/54
f 66/109/60 59/102/55 65/108/59
f 67/110/61 59/102/55 68/111/62
f 69/112/56 67/110/61 68/111/62
f 69/112/56 70/113/57 67/110/61
f 70/113/57 71/114/63 67/110/61
f 71/114/63 41/77/41 67/110/61
f 72/115/59 68/111/62 59/102/55
f 73/116/64 72/115/59 59/102/55
f 74/117/59 73/116/64 59/102/55
f 66/109/60 74/117/59 59/102/55
f 57/100/53 42/82/42 12/20/12
f 12/20/12 14/19/14 57/100/53
f 42/82/42 57/100/53 59/102/55
f 59/102/55 67/110/61 42/82/42
f 41/77/41 37/65/37 42/82/42
f 42/82/42 67/110/61 41/77/41
f 75/118/65 69/112/56 68/111/62
f 68/111/62 72/115/59 75/118/65
f 75/118/65 71/114/63 70/113/57
f 70/113/57 69/112/56 75/118/65
f 50/119/48 41/77/41 71/114/63
f 71/114/63 75/118/65 50/119/48
f 52/120/50 51/121/49 50/119/48
f 50/119/48 75/118/65 52/120/50
f 53/122/49 52/120/50 75/118/65
f 75/118/65 54/123/50 53/122/49
f 54/123/50 75/118/65 56/124/52
f 56/124/52 55/125/51 54/123/50
f 16/126/16 56/124/52 75/118/65
f 75/118/65 49/127/47 16/126/16
f 49/127/47 75/118/65 47/128/45
f 47/128/45 48/129/46 49/127/47
f 47/128/45 75/118/65 45/130/45
f 45/130/45 46/131/44 47/128/45
f 45/130/45 75/118/65 43/132/43
f 43/132/43 44/133/44 45/130/45
f 43/132/43 75/118/65 64/107/58
f 64/107/58 14/19/14 43/132/43
f 75/118/65 62/105/56 63/106/57
f 63/106/57 64/107/58 75/118/65
f 75/118/65 60/103/56 61/104/57
f 61/104/57 62/105/56 75/118/65
f 75/118/65 65/108/59 58/101/54
f 58/101/54 60/103/56 75/118/65
f 75/118/65 74/117/59 66/109/60
f 66/109/60 65/108/59 75/118/65
f 75/118/65 72/115/59 73/116/64
f 73/116/64 74/117/59 75/118/65
s off
